<svg width="244" height="109" viewBox="0 0 244 109" fill="none" xmlns="http://www.w3.org/2000/svg">
<path d="M224.5 54.4259C224.5 71.5042 210.216 85.4259 192.5 85.4259C174.784 85.4259 160.5 71.5042 160.5 54.4259C160.5 37.3476 174.784 23.4259 192.5 23.4259C210.216 23.4259 224.5 37.3476 224.5 54.4259Z" fill="white" stroke="black" stroke-width="3"/>
<path d="M52.8884 42H36.7604V12.192H53.3684L52.8884 19.536H44.9684V24H51.8324V30.336H44.9684V35.28H53.3684L52.8884 42ZM77.7187 12.192L72.6787 42H60.0067L54.6307 12.192H63.7027L66.2947 31.728H67.1107L69.0787 12.192H77.7187ZM96.5291 42H80.4011V12.192H97.0091L96.5291 19.536H88.6091V24H95.4731V30.336H88.6091V35.28H97.0091L96.5291 42ZM121.551 42H113.679L107.487 28.128H107.103V42H99.8073V12.192H107.919L113.823 26.496H114.207V12.192H121.551V42ZM143.104 19.44H137.536V42H129.328V19.44H123.424L123.904 12.192H143.584L143.104 19.44ZM42.6909 95H34.5309V83.72H28.9149V95H20.6589V65.192H28.9149V76.904H34.5309V65.192H42.6909V95ZM55.1214 85.208C55.1214 86.2 55.3294 86.936 55.7454 87.416C56.1614 87.896 56.8334 88.136 57.7614 88.136C58.7214 88.136 59.3774 87.912 59.7294 87.464C60.1134 86.984 60.3054 86.216 60.3054 85.16V65.192H68.5614V85.64C68.5614 89.064 67.6174 91.56 65.7294 93.128C63.8734 94.696 61.1214 95.48 57.4734 95.48C53.8574 95.48 51.1534 94.712 49.3614 93.176C47.6014 91.608 46.7214 89.128 46.7214 85.736V65.192H55.1214V85.208ZM94.5279 95H86.6559L80.4639 81.128H80.0799V95H72.7839V65.192H80.8959L86.7999 79.496H87.1839V65.192H94.5279V95ZM116.081 72.44H110.513V95H102.305V72.44H96.4006L96.8806 65.192H116.561L116.081 72.44ZM134.568 95H118.44V65.192H135.048L134.568 72.536H126.648V77H133.512V83.336H126.648V88.28H135.048L134.568 95ZM158.246 74.648C158.246 76.44 157.974 77.928 157.43 79.112C156.886 80.296 156.038 81.368 154.886 82.328L158.87 95H149.99L147.014 84.248H145.91V95H137.846V65.192H148.982C152.182 65.192 154.518 65.944 155.99 67.448C157.494 68.952 158.246 71.352 158.246 74.648ZM147.158 79.208C147.99 79.208 148.582 78.968 148.934 78.488C149.286 78.008 149.462 77.144 149.462 75.896C149.462 74.616 149.286 73.736 148.934 73.256C148.582 72.744 148.006 72.488 147.206 72.488H145.91V79.208H147.158Z" fill="white"/>
<path d="M213.5 54.4259C213.5 65.4081 204.163 74.4259 192.5 74.4259C180.837 74.4259 171.5 65.4081 171.5 54.4259C171.5 43.4437 180.837 34.4259 192.5 34.4259C204.163 34.4259 213.5 43.4437 213.5 54.4259Z" stroke="#007CEE" stroke-width="3"/>
<path d="M202.5 54.9259C202.5 60.4488 198.023 64.9259 192.5 64.9259C186.977 64.9259 182.5 60.4488 182.5 54.9259C182.5 49.4031 186.977 44.9259 192.5 44.9259C198.023 44.9259 202.5 49.4031 202.5 54.9259Z" fill="#007CEE" stroke="black" stroke-width="4"/>
<path d="M193.189 57.4259C190.296 57.4989 189.61 56.8634 190.189 54.4259L219.689 25.4259V16.4259L227.189 7.92591C230.037 4.9536 230.368 5.27349 231 9.9259L231.689 16.4259L236 15.9259C243.674 14.5901 244.945 16.4195 240 20.4259L231.689 27.9259H222.189L193.189 57.4259Z" fill="black" stroke="black"/>
<path d="M222 17.6402L227 11.9259V17.6402L222 21.9259V17.6402Z" fill="#007CEE" stroke="#007CEE"/>
<path d="M226 23.9259L230.5 19.9259H235L230.5 23.9259H226Z" fill="#007CEE" stroke="#007CEE" stroke-width="2"/>
</svg>
